<svg id="Layer_1" data-name="Layer 1" xmlns="http://www.w3.org/2000/svg" width="298" height="147" viewBox="0 0 298 147"><defs><style>.cls-1{fill:none;}</style></defs><path d="M66,28.76a22.63,22.63,0,1,1-23,22.62A22.82,22.82,0,0,1,66,28.76M66,23A28.39,28.39,0,1,0,94.79,51.38,28.59,28.59,0,0,0,66,23Z"/><path class="cls-1" d="M118.74,131.6c0-21.1-23.66-38.26-52.74-38.26S13.26,110.5,13.26,131.6c0,.55,0,1.09.05,1.64H118.69C118.72,132.69,118.74,132.15,118.74,131.6Z"/><path class="cls-1" d="M66,93.34c-29.08,0-52.74,17.16-52.74,38.26,0,.55,0,1.09.05,1.64H118.69c0-.55,0-1.09,0-1.64C118.74,110.5,95.08,93.34,66,93.34Z"/><path d="M66,87.58c-32,0-58,19.75-58,44,0,.55,0,1.09.05,1.64h5.26c0-.55-.05-1.09-.05-1.64,0-21.1,23.66-38.26,52.74-38.26s52.74,17.16,52.74,38.26c0,.55,0,1.09,0,1.64H124c0-.55,0-1.09,0-1.64C124,107.33,98,87.58,66,87.58Z"/><path d="M14.26,139H117.74a28.51,28.51,0,0,0,1-5.76H13.31A28.51,28.51,0,0,0,14.26,139Z"/><path d="M14.26,139a28.51,28.51,0,0,1-.95-5.76H8.05A33.42,33.42,0,0,0,8.84,139Z"/><path d="M117.74,139h5.42a33.42,33.42,0,0,0,.79-5.76h-5.26A28.51,28.51,0,0,1,117.74,139Z"/><path d="M284.9,35.42H176.51l-3.23-10.1a1.06,1.06,0,0,0-.34-.49,2.11,2.11,0,0,0-1.68-.83H153.12A2.1,2.1,0,0,0,151,26.08v2.24a2.1,2.1,0,0,0,2.12,2.07h14.94l3.74,11.7s0,0,0,.08l.64,2.51L185.13,95h0l5.13,22.38h0a4.52,4.52,0,0,0,4.58,3.41h75.53a3.22,3.22,0,0,0,0-6.39H196.25l-.39-1.72-3-12.9h82.94l12.45-55.54L289,41.1A6.39,6.39,0,0,0,284.9,35.42Zm-4,12.12L270.59,93.42H191.45L179.9,47.48l-1.42-5.67H282.16Z"/><ellipse cx="203.22" cy="132.69" rx="7.46" ry="7.31"/><ellipse cx="258.24" cy="132.69" rx="7.46" ry="7.31"/></svg>