<svg id="Layer_1" data-name="Layer 1" xmlns="http://www.w3.org/2000/svg" width="143" height="144" viewBox="0 0 143 144"><defs><style>.cls-1{fill:none;}</style></defs><path d="M72,31.76a22.63,22.63,0,1,1-23,22.62A22.82,22.82,0,0,1,72,31.76M72,26a28.39,28.39,0,1,0,28.79,28.38A28.59,28.59,0,0,0,72,26Z"/><path class="cls-1" d="M124.74,134.6c0-21.1-23.66-38.26-52.74-38.26S19.26,113.5,19.26,134.6c0,.55,0,1.09,0,1.64H124.69C124.72,135.69,124.74,135.15,124.74,134.6Z"/><path class="cls-1" d="M72,96.34c-29.08,0-52.74,17.16-52.74,38.26,0,.55,0,1.09,0,1.64H124.69c0-.55,0-1.09,0-1.64C124.74,113.5,101.08,96.34,72,96.34Z"/><path d="M72,90.58c-32,0-58,19.75-58,44,0,.55,0,1.09.05,1.64h5.26c0-.55,0-1.09,0-1.64,0-21.1,23.66-38.26,52.74-38.26s52.74,17.16,52.74,38.26c0,.55,0,1.09,0,1.64H130c0-.55.05-1.09.05-1.64C130,110.33,104,90.58,72,90.58Z"/><path d="M20.26,142H123.74a28.51,28.51,0,0,0,1-5.76H19.31A28.51,28.51,0,0,0,20.26,142Z"/><path d="M20.26,142a28.51,28.51,0,0,1-1-5.76H14.05a33.42,33.42,0,0,0,.79,5.76Z"/><path d="M123.74,142h5.42a33.42,33.42,0,0,0,.79-5.76h-5.26A28.51,28.51,0,0,1,123.74,142Z"/></svg>