<svg id="Layer_1" data-name="Layer 1" xmlns="http://www.w3.org/2000/svg" width="143" height="144" viewBox="0 0 143 144"><path d="M136.9,37.42H28.51l-3.23-10.1a1.06,1.06,0,0,0-.34-.49A2.11,2.11,0,0,0,23.26,26H5.12A2.1,2.1,0,0,0,3,28.08v2.24a2.1,2.1,0,0,0,2.12,2.07H20.06l3.74,11.7,0,.08.64,2.51L37.13,97h0l5.13,22.38h0a4.52,4.52,0,0,0,4.58,3.41h75.53a3.22,3.22,0,0,0,0-6.39H48.25l-.39-1.72-3-12.9h82.94l12.45-55.54L141,43.1A6.39,6.39,0,0,0,136.9,37.42Zm-4,12.12L122.59,95.42H43.45L31.9,49.48l-1.42-5.67H134.16Z"/><ellipse cx="55.22" cy="134.69" rx="7.46" ry="7.31"/><ellipse cx="110.24" cy="134.69" rx="7.46" ry="7.31"/></svg>